<svg width="92" height="12" viewBox="0 0 92 12" fill="none" xmlns="http://www.w3.org/2000/svg">
<path d="M19.9776 4.72457C20.0336 4.78063 20.0897 4.78062 20.1457 4.78062C20.2018 4.78062 20.2859 4.7526 20.3139 4.69654C20.398 4.61246 20.398 4.47233 20.2859 4.36022C20.1457 4.24811 20.0056 4.10798 19.8935 3.93981C19.1928 2.95886 19.361 1.58554 20.2578 0.80078C20.8744 0.268265 21.6872 0.0720745 22.472 0.296291C23.2567 0.520508 23.9014 1.10908 24.1536 1.89383C24.2097 2.09002 24.2657 2.28622 24.2657 2.4824V2.51043H24.3218V2.4824C24.3218 2.09003 24.2097 1.66962 23.9855 1.27724C23.5931 0.632616 22.9484 0.156157 22.1917 0.0440491C21.435 -0.0960863 20.6502 0.100103 20.0336 0.604591C19.417 1.10908 19.0527 1.83778 19.0247 2.62254C19.0527 3.43533 19.389 4.19206 19.9776 4.72457Z" fill="#2B3D41"/>
<path d="M33.0102 6.04247C32.9542 6.01444 32.8981 5.98642 32.8421 5.98642C32.5058 5.98642 32.1694 6.0705 31.8892 6.18261C30.9643 6.54696 30.4317 7.30369 29.8992 8.06042C29.5629 8.56491 29.1986 9.0694 28.7501 9.43375C28.1055 9.99429 27.1526 10.1625 26.3398 9.88218C26.1716 9.82613 26.0035 9.74204 25.8633 9.65796C27.1246 8.48083 27.8533 6.85525 27.8533 5.11758C27.8533 4.97744 27.7411 4.92139 27.6571 4.92139C27.573 4.92139 27.4609 4.97744 27.4609 5.11758C27.4609 5.90233 27.3207 6.68709 27.0405 7.38777C26.7322 8.17253 26.2277 8.90123 25.6111 9.46177C25.3869 9.29361 25.1907 9.09742 24.9945 8.81715C24.8263 8.59293 24.6582 8.36872 24.49 8.1445C23.7613 7.16355 23.0046 6.12655 21.5752 6.12655H21.5472C20.6783 6.12655 19.8936 6.54696 19.2209 7.38777C19.0247 7.61199 18.8566 7.86423 18.6884 8.11647C18.324 8.62096 17.9597 9.12545 17.4832 9.4898C17.4272 9.43375 17.3992 9.40572 17.3431 9.37769C16.166 8.22858 15.5213 6.71512 15.5213 5.11758H15.4653C15.4092 6.7992 16.1379 8.4528 17.3431 9.60191C17.1749 9.71402 16.9787 9.82613 16.7826 9.88218C15.9417 10.1625 14.9888 9.99429 14.3442 9.43375C13.8958 9.04137 13.5314 8.53688 13.1951 8.06042C13.0269 7.80818 12.8588 7.58396 12.6626 7.33172C11.9619 6.43485 11.1771 5.98642 10.2523 5.95839C10.0841 5.95839 10 6.09852 10 6.18261C10 6.29471 10.0841 6.40682 10.2523 6.40682C10.8128 6.3788 11.3453 6.57499 11.7937 6.91131C12.2702 7.27566 12.6065 7.75212 12.9709 8.22858C13.139 8.4528 13.3352 8.70504 13.5034 8.92926C13.9798 9.51783 14.4563 9.88218 14.9888 10.0503C15.5774 10.2465 16.25 10.2465 16.8386 10.0223C17.0628 9.93823 17.287 9.82613 17.4832 9.68599C17.9877 10.1625 18.5763 10.5268 19.2209 10.8071C20.0057 11.1434 20.8185 11.3116 21.6312 11.3116C22.8364 11.3116 24.0136 10.9752 25.0786 10.2746C25.3028 10.1064 25.527 9.93824 25.7512 9.77007C25.9194 9.88218 26.1156 9.99429 26.3118 10.0784C26.6201 10.1905 26.9284 10.2465 27.2647 10.2465C27.8813 10.2465 28.5259 10.0223 29.0024 9.62994C29.4788 9.23756 29.8432 8.7611 30.2075 8.28464C30.5439 7.80818 30.9082 7.33172 31.3847 6.93934C31.8051 6.60301 32.3656 6.40682 32.9262 6.43485C32.9822 6.43485 33.0383 6.40682 33.0943 6.37879C33.1504 6.32274 33.1504 6.26669 33.1504 6.21063C33.0943 6.15458 33.0663 6.09852 33.0102 6.04247ZM25.4429 9.60191C24.3779 10.5268 22.9765 11.0873 21.5472 11.0873C21.5472 11.0873 21.5472 11.0873 21.5191 11.0873C21.4911 11.0873 21.4631 11.0873 21.4351 11.0873C20.0057 11.0873 18.6604 10.5548 17.5673 9.60191C18.0438 9.20953 18.4081 8.70504 18.7445 8.22858L18.7725 8.20056C19.5292 7.13553 20.2299 6.26669 21.5191 6.26669H21.5472C22.9205 6.26669 23.5651 7.19158 24.2938 8.20056C24.6301 8.73307 24.9945 9.23756 25.4429 9.60191Z" fill="#2B3D41"/>
<path d="M47.9418 2.79111C48.0668 2.68697 48.1709 2.56201 48.2542 2.45788C48.3375 2.33292 48.3584 2.27044 48.3167 2.27044C48.2334 2.27044 48.1501 2.27044 48.046 2.27044C47.9627 2.27044 47.7544 2.29127 47.4628 2.29127C47.1712 2.31209 46.8797 2.31209 46.6089 2.31209C46.7131 2.1663 46.838 1.95803 47.0046 1.68729C47.1712 1.41654 47.2962 1.2291 47.3587 1.10414C47.3587 1.08331 47.3795 1.06249 47.3795 1.06249C47.3795 1 47.3379 1 47.2754 1.06249C46.5048 1.66646 45.5884 2.24961 44.5471 2.81193C44.443 2.85359 44.4429 2.89524 44.5263 2.91607H45.2135H45.3385C44.7137 3.93658 44.2139 4.74881 43.839 5.37362C43.36 6.20668 43.1309 6.83148 43.1517 7.22719C43.1517 7.37298 43.1933 7.56042 43.2558 7.74786C43.3183 7.95612 43.4224 8.10191 43.5474 8.20605C43.5682 8.2477 43.6515 8.2477 43.7765 8.26853C43.9015 8.26853 43.9848 8.26853 44.0681 8.22688C44.6512 7.89365 45.4218 7.3105 46.4007 6.45661L46.3174 6.39412C46.0258 6.64404 45.6926 6.91479 45.2552 7.20636C44.8387 7.49794 44.5471 7.66455 44.4013 7.70621C44.193 7.64373 44.0681 7.45629 44.0681 7.14389C44.0264 6.78983 44.2139 6.26916 44.6096 5.56105C44.9636 4.8946 45.4843 4.01988 46.1924 2.91607C46.4423 2.91607 46.6922 2.91607 46.9213 2.91607C47.1504 2.91607 47.317 2.91606 47.442 2.93689C47.5461 2.93689 47.6086 2.93689 47.6294 2.93689C47.7336 2.95772 47.8169 2.89524 47.9418 2.79111Z" fill="#2B3D41"/>
<path d="M50.8994 4.16541C51.1285 3.81136 51.3576 3.56143 51.5451 3.39482C51.7325 3.22821 51.9408 3.10324 52.1282 3.04076C52.3573 3.04076 52.6281 3.06159 52.9196 3.10325C53.2112 3.1449 53.3986 3.18655 53.4611 3.18655C53.5653 3.16573 53.711 3.06159 53.8985 2.8325C54.0859 2.6034 54.1901 2.43679 54.1901 2.31183C54.1901 2.27018 54.0234 2.24935 53.711 2.22852C53.3986 2.2077 53.1487 2.2077 52.9613 2.24935C52.6072 2.31183 52.2323 2.54093 51.8366 2.91581C51.4618 3.29069 50.9827 3.83218 50.4412 4.51946C50.6912 3.99879 50.7953 3.62391 50.7536 3.37399C50.7328 3.20738 50.6912 3.04076 50.6495 2.85332C50.587 2.66588 50.4829 2.49927 50.3579 2.37431C50.2122 2.22853 50.0664 2.2077 49.8998 2.31183C49.3583 2.62423 48.7126 3.12407 48.0045 3.79053L48.0878 3.87383C48.3169 3.62391 48.546 3.41564 48.7959 3.24903C49.0459 3.08242 49.275 2.95746 49.4624 2.91581C49.6915 2.99912 49.8164 3.16573 49.8373 3.41565C49.8581 3.85301 49.629 4.51946 49.1292 5.43583C48.6293 6.35221 48.1503 7.1228 47.6713 7.7476C47.6088 7.85173 47.6088 7.95587 47.6296 8.01835C47.6505 8.08083 47.6713 8.14331 47.6921 8.16413C47.713 8.20579 47.7546 8.22662 47.8379 8.22662C47.9212 8.24744 47.9837 8.24744 48.0254 8.24744C48.067 8.24744 48.1503 8.24744 48.2128 8.22662C48.2961 8.22662 48.3378 8.20579 48.3586 8.20579C48.6502 7.7476 48.9834 7.20611 49.3374 6.60213C49.7123 5.97733 49.9831 5.51915 50.1913 5.18592C50.4413 4.85269 50.6495 4.51946 50.8994 4.16541Z" fill="#2B3D41"/>
<path d="M59.959 2.20783C59.73 2.27031 59.3967 2.47858 58.9802 2.77016C58.5428 3.08256 58.2304 3.33248 58.043 3.54075L58.1055 3.60323C58.6053 3.16586 58.9802 2.91594 59.2509 2.83263C59.5633 2.95759 59.73 3.18669 59.73 3.54075C59.7091 3.79067 59.5217 4.14472 59.1676 4.58208C58.8136 5.01944 58.2721 5.62341 57.5223 6.394L56.2935 7.68526C56.4602 7.26873 56.5851 6.68558 56.6684 5.93582C56.7517 5.16523 56.7934 4.49877 56.7934 3.91563C56.7934 3.14504 56.6684 2.62437 56.4393 2.35362C56.3352 2.24949 56.2311 2.18701 56.0853 2.18701C55.9811 2.18701 55.8978 2.20784 55.8354 2.24949C55.2939 2.54106 54.7315 2.9576 54.1484 3.47826L54.2109 3.54075C54.3775 3.37413 54.5858 3.22834 54.8357 3.06173C55.0856 2.89512 55.2522 2.79098 55.3355 2.77016C55.4813 2.77016 55.5854 2.81181 55.6687 2.89512C55.8354 3.08256 55.8978 3.47827 55.8978 4.04059C55.8978 4.81118 55.8354 5.66507 55.7104 6.6231C55.5854 7.58113 55.398 8.31006 55.1272 8.83073C54.9815 8.99734 54.7315 9.24726 54.3567 9.55966C53.9193 9.93455 53.4819 10.2053 53.0446 10.3719C52.6072 10.5385 52.0449 10.6218 51.3784 10.6218H50.0664C49.9414 10.726 49.8164 10.8509 49.7123 10.9967C49.6082 11.1425 49.5873 11.2675 49.629 11.3299C49.7123 11.4549 49.8581 11.5382 50.0872 11.5382C51.5659 11.5382 53.0029 10.8926 54.4191 9.60131C54.7315 9.33057 55.0439 9.039 55.3563 8.7266C55.6687 8.4142 55.9187 8.16427 56.1269 7.95601C56.3352 7.74774 56.5851 7.47699 56.9183 7.14377C57.2307 6.81054 57.4807 6.56062 57.6056 6.41483C58.1471 5.85251 58.5637 5.39432 58.8761 5.06109C59.1885 4.72787 59.5009 4.35299 59.8133 3.95728C60.1465 3.54075 60.3548 3.20752 60.4797 2.93677C60.5422 2.7285 60.5005 2.54106 60.3548 2.35362C60.209 2.27032 60.084 2.18701 59.959 2.20783Z" fill="#2B3D41"/>
<path d="M67.1858 8.1433C66.9567 8.1433 66.8109 8.10165 66.7276 7.97669C66.6443 7.87255 66.6235 7.56016 66.6235 7.08114V4.62359C66.6235 3.04076 65.9778 2.22852 64.7074 2.22852C63.8952 2.22852 63.1662 2.66588 62.5414 3.51977C62.5414 3.29068 62.479 3.06158 62.3748 2.85332C62.2707 2.64505 62.1666 2.47844 62.0416 2.35348C61.9999 2.31182 61.9791 2.31182 61.9791 2.33265C61.8125 2.49926 61.5209 2.66588 61.1252 2.83249C61.0836 2.85332 61.0836 2.87415 61.1252 2.89497C61.4793 3.2282 61.6667 3.51977 61.6667 3.79052V6.83122C61.6667 7.41437 61.6459 7.78925 61.5834 7.91421C61.5418 8.06 61.3751 8.12248 61.1252 8.12248C61.0836 8.12248 61.0627 8.1433 61.0627 8.18495C61.0627 8.22661 61.0836 8.24743 61.1252 8.24743C61.2502 8.24743 61.4585 8.24744 61.75 8.22661C62.0416 8.22661 62.2082 8.20578 62.2499 8.20578C62.3123 8.20578 62.479 8.20578 62.7289 8.22661C62.9788 8.22661 63.1246 8.24743 63.1454 8.24743C63.1871 8.24743 63.2079 8.22661 63.2079 8.18495C63.2079 8.1433 63.1871 8.12248 63.1454 8.12248H62.5414V3.66556C62.833 3.29068 63.1038 3.01993 63.3745 2.85332C63.6453 2.6867 63.9577 2.6034 64.3117 2.6034C64.7282 2.6034 65.0615 2.74918 65.3322 3.06158C65.603 3.35316 65.7279 3.853 65.7488 4.51945L65.7696 7.01866C65.7696 7.5185 65.7279 7.8309 65.6446 7.95586C65.5613 8.08082 65.3947 8.1433 65.1448 8.1433C65.1031 8.1433 65.0823 8.16413 65.0823 8.20578C65.0823 8.24744 65.1031 8.26826 65.1448 8.26826C65.2697 8.26826 65.4572 8.26826 65.7071 8.24743C65.957 8.24743 66.1028 8.22661 66.1445 8.22661C66.2069 8.22661 66.3944 8.22661 66.7068 8.24743C66.9984 8.24743 67.165 8.26826 67.1858 8.26826C67.2275 8.26826 67.2483 8.24744 67.2483 8.20578C67.2691 8.1433 67.2275 8.1433 67.1858 8.1433Z" fill="#2B3D41"/>
<path d="M69.0395 1.22878C69.2061 1.22878 69.3519 1.16629 69.4769 1.06216C69.6018 0.9372 69.6643 0.791418 69.6643 0.624804C69.6643 0.458191 69.6018 0.312402 69.4769 0.187442C69.3519 0.062482 69.2061 0 69.0395 0C68.8729 0 68.7271 0.062482 68.6022 0.187442C68.4772 0.312402 68.4355 0.458191 68.4355 0.624804C68.4355 0.791418 68.498 0.9372 68.6022 1.06216C68.7271 1.18712 68.8729 1.22878 69.0395 1.22878Z" fill="#2B3D41"/>
<path d="M70.247 8.14347C69.9346 8.14347 69.7264 8.08099 69.6639 7.9352C69.5806 7.78941 69.5597 7.47702 69.5597 6.95635V2.33282C69.5597 2.31199 69.5389 2.29117 69.4764 2.27034C69.414 2.24951 69.3723 2.24951 69.3515 2.24951C68.8725 2.58274 68.3726 2.81184 67.8728 2.91597C67.8311 2.91597 67.8103 2.93679 67.8103 2.97845C67.8311 3.0201 67.852 3.0201 67.8936 3.0201C68.206 2.95762 68.4143 2.95762 68.4976 3.04092C68.6017 3.12423 68.6434 3.39498 68.6434 3.81151V6.95635C68.6434 7.47702 68.6017 7.81024 68.5392 7.9352C68.4559 8.08099 68.2685 8.14347 67.9353 8.14347C67.8936 8.14347 67.8728 8.1643 67.8728 8.20595C67.8728 8.2476 67.8936 8.26843 67.9353 8.26843C68.0602 8.26843 68.2685 8.26843 68.5809 8.2476C68.8933 8.2476 69.0599 8.22678 69.1224 8.22678C69.1849 8.22678 69.3306 8.22677 69.6222 8.2476C69.9138 8.2476 70.1221 8.26843 70.247 8.26843C70.2887 8.26843 70.3095 8.2476 70.3095 8.20595C70.3095 8.14347 70.2887 8.14347 70.247 8.14347Z" fill="#2B3D41"/>
<path d="M74.4752 6.72726C74.4335 6.72726 74.4127 6.74809 74.4127 6.76892C74.2877 7.1438 74.1003 7.45619 73.892 7.66446C73.6838 7.87273 73.4547 7.99769 73.2048 7.99769C72.7049 7.99769 72.4342 7.56033 72.4342 6.70643V3.02011C72.6008 3.02011 72.8715 3.02011 73.2672 3.02011C73.6629 3.02011 73.8712 3.02011 73.8712 3.02011C74.2461 2.66606 74.4544 2.45779 74.4544 2.39531C74.4544 2.37448 74.3086 2.37448 74.0378 2.37448C73.7879 2.37448 73.2464 2.39531 72.455 2.39531V1.24984C72.455 1.20819 72.4342 1.20818 72.4133 1.22901L70.9138 2.95763C70.893 2.99928 70.893 2.99928 70.9138 3.02011H71.5594V6.74809C71.5594 7.31041 71.6427 7.72694 71.8302 7.97686C72.0176 8.22678 72.2884 8.37257 72.6841 8.37257C73.059 8.37257 73.413 8.22678 73.7462 7.93521C74.0795 7.64363 74.3502 7.28958 74.5585 6.85222C74.5793 6.83139 74.5793 6.78974 74.5585 6.76892C74.5377 6.72726 74.496 6.72726 74.4752 6.72726Z" fill="#2B3D41"/>
<path d="M81.4937 2.39485C81.4728 2.37402 81.4728 2.37402 81.4312 2.37402C81.4104 2.37402 81.2437 2.37402 80.9313 2.39485C80.6189 2.39485 80.4315 2.41567 80.369 2.41567C80.3274 2.41567 80.1608 2.41568 79.89 2.39485C79.5984 2.39485 79.3902 2.37402 79.2652 2.37402C79.2236 2.37402 79.2027 2.39485 79.2027 2.4365C79.2027 2.47815 79.2236 2.49898 79.2652 2.49898C79.6609 2.49898 79.9108 2.64477 80.015 2.91552C80.1191 3.20709 80.0566 3.62362 79.8067 4.18594L78.4946 7.14334L76.9326 3.6861C76.7035 3.16544 76.5994 2.83221 76.641 2.70725C76.6827 2.58229 76.8701 2.49898 77.2242 2.49898C77.2658 2.49898 77.2867 2.47815 77.2867 2.4365C77.2867 2.39485 77.2658 2.37402 77.2242 2.37402C77.0992 2.37402 76.8701 2.37402 76.5369 2.39485C76.2037 2.39485 76.0162 2.41567 75.9746 2.41567C75.9121 2.41567 75.7038 2.41568 75.3706 2.39485C75.0166 2.39485 74.8499 2.37402 74.8083 2.37402C74.7875 2.37402 74.7666 2.37402 74.7458 2.39485C74.725 2.41568 74.725 2.4365 74.7458 2.45733C74.7666 2.47816 74.7666 2.47816 74.8083 2.47816C75.0999 2.47816 75.329 2.54063 75.4747 2.72807C75.6205 2.89469 75.8705 3.33205 76.1829 4.01933L78.0573 8.16385L77.9323 8.45542C77.6824 9.01774 77.4325 9.39263 77.2034 9.58007C76.9743 9.76751 76.6827 9.85081 76.3495 9.85081C76.2037 9.85081 76.0162 9.78833 75.808 9.6842C75.5997 9.58007 75.4123 9.51758 75.2665 9.51758C75.0999 9.51758 74.9332 9.58006 74.8083 9.70502C74.6833 9.82998 74.6208 9.95494 74.6208 10.0591C74.6208 10.184 74.7042 10.2882 74.8916 10.3715C75.0582 10.4756 75.3081 10.5173 75.5997 10.5173C76.162 10.5173 76.6202 10.3506 77.0159 10.0174C77.4116 9.68419 77.7449 9.18435 78.0573 8.47625L79.9317 4.24843C80.1816 3.66528 80.4315 3.22792 80.6814 2.91552C80.9313 2.62395 81.1813 2.47816 81.452 2.47816C81.4728 2.47816 81.4937 2.47816 81.5145 2.45733C81.4937 2.41568 81.4937 2.39485 81.4937 2.39485Z" fill="#2B3D41"/>
</svg>
