<svg width="92" height="45" viewBox="0 0 92 45" fill="none" xmlns="http://www.w3.org/2000/svg">
<path d="M39.6514 18.7755C39.8742 18.9983 40.0969 18.9983 40.3197 18.9983C40.5425 18.9983 40.8766 18.8869 40.988 18.6641C41.3221 18.33 41.3221 17.7731 40.8766 17.3276C40.3197 16.8821 39.7628 16.3252 39.3173 15.6569C36.5328 11.7586 37.2011 6.30096 40.7652 3.18231C43.2156 1.06609 46.4456 0.286425 49.5642 1.17747C52.6829 2.06851 55.2446 4.40749 56.2471 7.52613C56.4698 8.30579 56.6926 9.08546 56.6926 9.86512V9.97649H56.9153V9.86512C56.9153 8.3058 56.4698 6.63509 55.5788 5.07577C54.0195 2.51403 51.4577 0.620572 48.4504 0.175052C45.4432 -0.381849 42.3246 0.397812 39.8742 2.40265C37.4238 4.4075 35.9759 7.30338 35.8645 10.422C35.9759 13.652 37.3124 16.6593 39.6514 18.7755Z" fill="#2B3D41"/>
<path d="M91.4431 24.0114C91.2203 23.9 90.9976 23.7886 90.7748 23.7886C89.4382 23.7886 88.1017 24.1227 86.9879 24.5683C83.3123 26.0162 81.1961 29.0235 79.0799 32.0307C77.7433 34.0356 76.2954 36.0404 74.5133 37.4884C71.9516 39.716 68.1647 40.3842 64.9346 39.2704C64.2664 39.0477 63.5981 38.7135 63.0412 38.3794C68.0533 33.7014 70.9492 27.2414 70.9492 20.3358C70.9492 19.7789 70.5036 19.5562 70.1695 19.5562C69.8353 19.5562 69.3898 19.7789 69.3898 20.3358C69.3898 23.4545 68.8329 26.5731 67.7191 29.3576C66.494 32.4763 64.4891 35.3721 62.0387 37.5997C61.1477 36.9315 60.368 36.1518 59.5884 35.038C58.9201 34.1469 58.2518 33.2559 57.5835 32.3649C54.6877 28.4666 51.6804 24.3455 46 24.3455H45.8886C42.4358 24.3455 39.3172 26.0162 36.6441 29.3576C35.8644 30.2486 35.1961 31.2511 34.5278 32.2535C33.0799 34.2583 31.632 36.2632 29.7385 37.7111C29.5157 37.4884 29.4044 37.377 29.1816 37.2656C24.5036 32.699 21.9419 26.6845 21.9419 20.3358H21.7191C21.4964 27.0186 24.3923 33.59 29.1816 38.1566C28.5133 38.6022 27.7337 39.0477 26.954 39.2704C23.6126 40.3842 19.8257 39.716 17.2639 37.4884C15.4818 35.929 14.0339 33.9242 12.6974 32.0307C12.0291 31.0283 11.3608 30.1373 10.5811 29.1349C7.79661 25.5707 4.67799 23.7886 1.00245 23.6772C0.334168 23.6772 0 24.2341 0 24.5683C0 25.0138 0.334168 25.4593 1.00245 25.4593C3.23005 25.3479 5.34627 26.1276 7.12836 27.4641C9.02182 28.9121 10.3584 30.8055 11.8063 32.699C12.4746 33.5901 13.2542 34.5925 13.9225 35.4835C15.816 37.8225 17.7095 39.2704 19.8257 39.9387C22.1647 40.7184 24.8378 40.7184 27.1768 39.8273C28.0678 39.4932 28.9588 39.0477 29.7385 38.4908C31.7434 40.3842 34.0823 41.8322 36.6441 42.946C39.7627 44.2825 42.9927 44.9508 46.2228 44.9508C51.0121 44.9508 55.6901 43.6143 59.9225 40.8298C60.8136 40.1615 61.7046 39.4932 62.5957 38.8249C63.2639 39.2704 64.0436 39.716 64.8233 40.0501C66.0484 40.4956 67.2736 40.7184 68.6102 40.7184C71.0605 40.7184 73.6223 39.8273 75.5158 38.268C77.4092 36.7087 78.8571 34.8152 80.3051 32.9218C81.6416 31.0283 83.0896 29.1348 84.9831 27.5755C86.6538 26.239 88.8814 25.4593 91.109 25.5707C91.3317 25.5707 91.5545 25.4593 91.7773 25.3479C92 25.1252 92 24.9024 92 24.6796C91.7772 24.4569 91.6659 24.2341 91.4431 24.0114ZM61.3705 38.1566C57.138 41.8322 51.569 44.0598 45.8886 44.0598C45.8886 44.0598 45.8886 44.0598 45.7772 44.0598C45.6659 44.0598 45.5545 44.0598 45.4431 44.0598C39.7627 44.0598 34.4165 41.9436 30.0726 38.1566C31.9661 36.5973 33.4141 34.5925 34.7506 32.699L34.862 32.5876C37.8693 28.3552 40.6538 24.9024 45.7772 24.9024H45.8886C51.3463 24.9024 53.908 28.5779 56.8039 32.5876C58.1404 34.7038 59.5884 36.7087 61.3705 38.1566Z" fill="#2B3D41"/>
</svg>
